<?xml version="1.0" encoding="utf-8"?>
<!-- Generator: Adobe Illustrator 23.0.2, SVG Export Plug-In . SVG Version: 6.00 Build 0)  -->
<svg version="1.1" id="Calque_1" xmlns="http://www.w3.org/2000/svg" xmlns:xlink="http://www.w3.org/1999/xlink" x="0px" y="0px"
	 viewBox="0 0 180 158" style="enable-background:new 0 0 180 158;" xml:space="preserve">
<style type="text/css">
	.st0{fill:#FDF18D;}
</style>
<image style="display:none;overflow:visible;" width="180" height="158" xlink:href="logo.png" >
</image>
<path class="st0" d="M71.2,112.3c-0.1-0.6,0.3-1.2,0.9-1.3c0.6-0.1,1.2,0.3,1.3,0.9l7.5,40.7c3.2-0.6,6.6-1.4,10.1-2.3l-14.6-39.2
	c-0.2-0.6,0.1-1.2,0.7-1.4c0.6-0.2,1.2,0.1,1.4,0.7l14.7,39.4c3.3-1,6.7-2.1,10.1-3.4L81.3,109c-0.3-0.5-0.1-1.2,0.4-1.5
	c0.5-0.3,1.2-0.1,1.5,0.4l22.1,37.7c3.4-1.3,6.9-2.8,10.3-4.3L85.8,106c-0.4-0.5-0.3-1.2,0.1-1.6c0.5-0.4,1.2-0.3,1.6,0.1l30.3,35.6
	c3.7-1.7,7.4-3.6,11-5.5l-39.1-32.3c-0.5-0.4-0.5-1.1-0.2-1.6c0.4-0.5,1.1-0.5,1.6-0.2l39.8,32.9c4.1-2.3,8.1-4.7,11.9-7.1
	L92.9,98.1c-0.5-0.3-0.7-1-0.4-1.5c0.3-0.5,1-0.7,1.5-0.4l50.9,28.9c4.6-3.1,8.8-6.3,12.6-9.6L95.3,93.3c-0.6-0.2-0.9-0.8-0.7-1.4
	c0.2-0.6,0.9-0.9,1.4-0.7l63.4,22.5c4.8-4.3,8.7-8.7,11.5-13.1L96.8,88.2c-0.6-0.1-1-0.7-0.9-1.3c0.1-0.6,0.7-1,1.3-0.9l74.9,12.6
	c1.9-3.5,3-7,3-10.3c0-2.1-0.2-4.1-0.6-6l-77,0.6c-0.6,0-1.1-0.5-1.1-1.1c0-0.6,0.5-1.1,1.1-1.1l76.5-0.6c-1.6-5.7-4.9-10.5-9.2-15
	L97.1,77.6c-0.1,0-0.1,0-0.2,0c-0.5,0-1-0.4-1.1-0.9c-0.1-0.6,0.3-1.2,0.9-1.3l66-12.1c-3.9-3.7-8.4-7.1-13.4-10.8L95.9,72.4
	c-0.1,0-0.3,0.1-0.4,0.1c-0.5,0-0.9-0.3-1.1-0.7c-0.2-0.6,0.1-1.2,0.7-1.4l52.1-19.4c-3.6-2.6-7.3-5.3-11.1-8.2L93.8,67.4
	c-0.2,0.1-0.4,0.2-0.6,0.2c-0.4,0-0.8-0.2-1-0.6c-0.3-0.5-0.1-1.2,0.4-1.5l41.5-24.4c-3.5-2.7-6.5-5.1-9.2-7.2L90.9,63
	c-0.2,0.2-0.5,0.3-0.7,0.3c-0.3,0-0.6-0.1-0.9-0.4c-0.4-0.5-0.3-1.2,0.1-1.6l33.8-28.8c-3.4-2.7-6.1-5-8.3-6.9L87.2,59.1
	c-0.2,0.3-0.5,0.4-0.9,0.4c-0.3,0-0.5-0.1-0.7-0.3c-0.5-0.4-0.5-1.1-0.1-1.6l27.7-33.5c-5.2-4.5-7-6.4-8.2-7.1L82.9,55.9
	c-0.2,0.4-0.6,0.6-1,0.6c-0.2,0-0.4,0-0.6-0.1c-0.5-0.3-0.7-1-0.4-1.5l21.4-37.7c-3.4,1.9-11,8.6-14.9,10.1l-9.3,26.3
	c-0.2,0.5-0.6,0.7-1,0.7c-0.1,0-0.3,0-0.4-0.1c-0.6-0.2-0.9-0.8-0.7-1.4L85.1,27c-2.2-2.5-2.3-13.5-5.3-16L73,52
	c-0.1,0.5-0.6,0.9-1.1,0.9c-0.1,0-0.1,0-0.2,0c-0.6-0.1-1-0.7-0.9-1.3l6.9-40.7c-2.9,2.1-6,13-10.2,14.8l0.2,25.6
	c0,0.6-0.5,1.1-1.1,1.1c-0.6,0-1.1-0.5-1.1-1.1l-0.2-25.7C61,23.3,57.4,7.3,53.6,4.2l8.7,47.4c0.1,0.6-0.3,1.2-0.9,1.3
	c-0.1,0-0.1,0-0.2,0c-0.5,0-1-0.4-1.1-0.9L51.4,4.3c-1.8,1.4-4.8,5.6-8.2,11l14,37.6c0.2,0.6-0.1,1.2-0.7,1.4
	c-0.1,0-0.3,0.1-0.4,0.1c-0.5,0-0.9-0.3-1.1-0.7L41.6,17.6c-1.9,3-3.9,6.3-5.8,9.5L52.2,55c0.3,0.5,0.1,1.2-0.4,1.5
	c-0.2,0.1-0.4,0.2-0.6,0.2c-0.4,0-0.8-0.2-1-0.6L34.6,29.3c-1.6,2.7-3.1,5.4-4.5,7.9l17.7,20.8c0.4,0.5,0.3,1.2-0.1,1.6
	c-0.2,0.2-0.5,0.3-0.7,0.3c-0.3,0-0.6-0.1-0.9-0.4L28.9,39.3c-1.5,2.7-2.8,5.1-3.7,6.9l18.6,15.4c0.5,0.4,0.5,1.1,0.1,1.6
	c-0.2,0.3-0.5,0.4-0.9,0.4c-0.3,0-0.5-0.1-0.7-0.3L24.2,48.2c-1.1,2.2-2.2,4.3-3.3,6.4l19.8,11.2c0.5,0.3,0.7,1,0.4,1.5
	c-0.2,0.4-0.6,0.6-1,0.6c-0.2,0-0.4,0-0.6-0.1L19.9,56.7c-1.1,2.1-2.2,4.2-3.2,6.3l21.6,7.7c0.6,0.2,0.9,0.8,0.7,1.4
	c-0.2,0.5-0.6,0.7-1,0.7c-0.1,0-0.3,0-0.4-0.1L15.7,65c-1.1,2.3-2.2,4.5-3.2,6.7l24.2,4.1c0.6,0.1,1,0.7,0.9,1.3
	c-0.1,0.5-0.6,0.9-1.1,0.9c-0.1,0-0.1,0-0.2,0l-24.8-4.2c-1.1,2.5-2.1,5-3,7.5l27.5-0.2c0.6,0,1.1,0.5,1.1,1.1
	c0,0.6-0.5,1.1-1.1,1.1L7.9,83.5c-0.9,2.9-1.6,5.7-2.2,8.5l30.7-5.6c0.6-0.1,1.2,0.3,1.3,0.9c0.1,0.6-0.3,1.2-0.9,1.3L5.3,94.4
	c-0.3,2-0.4,4.1-0.4,6.1c0,1.1,0.1,2.1,0.3,3.2l32.5-12.1c0.6-0.2,1.2,0.1,1.4,0.7c0.2,0.6-0.1,1.2-0.7,1.4L5.6,105.9
	c0.6,2.9,1.7,5.8,3.1,8.8l31-18.2c0.5-0.3,1.2-0.1,1.5,0.4c0.3,0.5,0.1,1.2-0.4,1.5L9.8,116.7c1.4,2.7,3.2,5.3,5.2,7.9L42.7,101
	c0.5-0.4,1.2-0.3,1.6,0.1c0.4,0.5,0.3,1.2-0.1,1.6l-27.8,23.7c2,2.4,4.1,4.7,6.5,7l23.6-28.5c0.4-0.5,1.1-0.5,1.6-0.2
	c0.5,0.4,0.5,1.1,0.2,1.6l-23.6,28.6c2.4,2.1,4.9,4.1,7.6,6l18.6-32.8c0.3-0.5,1-0.7,1.5-0.4c0.5,0.3,0.7,1,0.4,1.5l-18.7,33
	c2.7,1.8,5.6,3.4,8.5,4.9l13-36.5c0.2-0.6,0.8-0.9,1.4-0.7c0.6,0.2,0.9,0.8,0.7,1.4L44.5,148c3.1,1.4,6.2,2.5,9.4,3.5l6.7-39.4
	c0.1-0.6,0.7-1,1.3-0.9c0.6,0.1,1,0.7,0.9,1.3L56.1,152c3.3,0.8,6.7,1.4,10.1,1.6l-0.3-41c0-0.6,0.5-1.1,1.1-1.1
	c0.6,0,1.1,0.5,1.1,1.1l0.3,41.1c0.6,0,1.2,0,1.8,0c2.6,0,5.4-0.3,8.4-0.7L71.2,112.3z"/>
</svg>
