<?xml version="1.0" encoding="utf-8"?>
<!-- Generator: Adobe Illustrator 23.0.2, SVG Export Plug-In . SVG Version: 6.00 Build 0)  -->
<svg version="1.1" id="Calque_1" xmlns="http://www.w3.org/2000/svg" xmlns:xlink="http://www.w3.org/1999/xlink" x="0px" y="0px"
	 viewBox="0 0 90 90" style="enable-background:new 0 0 90 90;" xml:space="preserve">
<style type="text/css">
	.st0{fill:#1D1D1B;}
</style>
<g>
	<path class="st0" d="M0.3,60.5V67L9,62c-0.7-1.4-1.2-2.8-1.5-4.1L0.3,60.5z"/>
	<path class="st0" d="M0.3,26.2v6.6l12.6,4.6c0.5-1,1-2,1.5-3L0.3,26.2z"/>
	<path class="st0" d="M0.3,4.1v11.3l16.7,14c0.4-0.9,1.1-2,1.8-3.3L0.3,4.1z"/>
	<path class="st0" d="M0.3,34v5.7l10.6,1.9c0.5-1,1-2.1,1.5-3.2L0.3,34z"/>
	<path class="st0" d="M0.3,47.2v5.3l7.3-1.3c0.2-1.3,0.6-2.7,1-4H0.3z"/>
	<path class="st0" d="M0.3,40.8v5.3H9c0.4-1.2,0.9-2.3,1.4-3.5L0.3,40.8z"/>
	<path class="st0" d="M9.1,0H0.3v2.4l19.1,22.7c0.7-1.2,1.4-2.4,2.1-3.7L9.1,0z"/>
	<path class="st0" d="M42.1,12.8L44.4,0h-7.1v19.8C39.2,18.8,40.7,13.5,42.1,12.8z"/>
	<path class="st0" d="M19.1,0h-8.7l11.7,20.3c0.9-1.5,1.9-3.1,2.8-4.5L19.1,0z"/>
	<path class="st0" d="M36.1,19.8V0H29l1.7,9.7C32.5,11.4,34.1,18.8,36.1,19.8z"/>
	<path class="st0" d="M45.6,20.6L53.1,0h-7.6l-2.3,13C44.5,14.4,44.5,19.7,45.6,20.6z"/>
	<path class="st0" d="M63,0h-8.7l-7.5,20.5c2-0.9,5.7-4.1,7.1-4.8L63,0z"/>
	<path class="st0" d="M90.4,0.8V0H76.5L59.7,20c1,0.9,2.3,2,3.9,3.3L90.4,0.8z"/>
	<path class="st0" d="M75.1,0H64.2l-9.2,15.9c0.6,0.4,1.5,1.3,3.8,3.4L75.1,0z"/>
	<path class="st0" d="M12.2,90.2h8.1l4.7-12.9c-1.4-0.7-2.7-1.5-4-2.3L12.2,90.2z"/>
	<path class="st0" d="M90.4,77V66.8l-11-4c-1.8,1.5-3.8,3-6,4.4L90.4,77z"/>
	<path class="st0" d="M0.3,68.3v8.2L12,66.7c-0.9-1.2-1.7-2.5-2.4-3.7L0.3,68.3z"/>
	<path class="st0" d="M89.4,90.2h1V78.3L72.4,67.9c-1.8,1.1-3.7,2.3-5.6,3.3L89.4,90.2z"/>
	<path class="st0" d="M73.9,90.2h13.8l-22-18.4c-1.7,0.9-3.4,1.7-5.2,2.5L73.9,90.2z"/>
	<path class="st0" d="M90.4,36.6v-8.9L76,32.9c2.3,1.7,4.4,3.4,6.2,5.1L90.4,36.6z"/>
	<path class="st0" d="M90.4,15V2.2L64.5,24c1.3,1,2.7,2.2,4.3,3.4L90.4,15z"/>
	<path class="st0" d="M90.4,26.5V16.2l-20.7,12c1.8,1.4,3.6,2.7,5.2,3.9L90.4,26.5z"/>
	<path class="st0" d="M90.4,46.1v-8.4L83.2,39c2,2.1,3.5,4.4,4.2,7.1H90.4z"/>
	<path class="st0" d="M29.6,9.5L27.9,0h-7.6l5.3,14.7C27.3,12.2,28.8,10.2,29.6,9.5z"/>
	<path class="st0" d="M21.4,90.2h7l1.9-10.8c-1.5-0.4-3-1-4.4-1.6L21.4,90.2z"/>
	<path class="st0" d="M0.9,90.2h10.1L20,74.4c-1.3-0.9-2.4-1.8-3.5-2.8L0.9,90.2z"/>
	<path class="st0" d="M44.9,90.2h7L47.9,79c-1.6,0.4-3.2,0.8-4.7,1.1L44.9,90.2z"/>
	<path class="st0" d="M53.1,90.2h8.1l-7.5-13.1c-1.6,0.6-3.2,1.1-4.7,1.5L53.1,90.2z"/>
	<path class="st0" d="M62.5,90.2h10.1l-13-15.4c-1.6,0.7-3.3,1.4-4.9,2L62.5,90.2z"/>
	<path class="st0" d="M29.6,90.2h6.6v-9.7c-1.6-0.1-3.2-0.4-4.7-0.8L29.6,90.2z"/>
	<path class="st0" d="M0.3,16.8V25l14.6,8.5c0.5-1,1-2,1.6-3L0.3,16.8z"/>
	<path class="st0" d="M80.3,61.9l10.1,3.7v-8.9l-4.6-0.8C84.5,57.8,82.6,59.9,80.3,61.9z"/>
	<path class="st0" d="M37.2,80.5v9.7h6.6l-1.8-10c-1.4,0.2-2.8,0.3-4.1,0.3C37.7,80.5,37.5,80.5,37.2,80.5z"/>
	<path class="st0" d="M86.4,54.8l4,0.7v-8.4h-2.8c0.2,0.9,0.2,1.7,0.2,2.7C87.9,51.4,87.4,53.1,86.4,54.8z"/>
	<path class="st0" d="M12.6,67.5L0.3,77.9v11.3l15.4-18.4C14.6,69.7,13.6,68.6,12.6,67.5z"/>
	<path class="st0" d="M7.4,52.3l-7.1,1.3v5.7l7.1-2.6c-0.1-0.6-0.1-1.1-0.1-1.7C7.2,54.1,7.3,53.2,7.4,52.3z"/>
	<path class="st0" d="M43.9,59.1c-0.3,0.2-0.4,0.5-0.2,0.7l10,17.3c0.3-0.1,0.7-0.3,1-0.4L44.7,59.3C44.5,59,44.2,59,43.9,59.1z"/>
	<path class="st0" d="M49.2,39.4c0.1,0.2,0.3,0.3,0.5,0.3c0.1,0,0.2,0,0.3-0.1l19.8-11.4c-0.3-0.2-0.5-0.4-0.8-0.6
		c0,0-0.1-0.1-0.1-0.1L49.4,38.7C49.1,38.8,49,39.2,49.2,39.4z"/>
	<path class="st0" d="M39.2,60.8c-0.3,0.1-0.5,0.3-0.4,0.6l3.3,18.7c0.4-0.1,0.7-0.1,1.1-0.2l-3.3-18.8C39.8,61,39.5,60.8,39.2,60.8
		z"/>
	<path class="st0" d="M41.6,60.2c-0.3,0.1-0.4,0.4-0.3,0.7L47.9,79c0.3-0.1,0.7-0.2,1.1-0.3l-6.6-18.2
		C42.2,60.2,41.9,60.1,41.6,60.2z"/>
	<path class="st0" d="M31.8,60.2c-0.3-0.1-0.6,0-0.7,0.3l-6.1,16.8c0.3,0.2,0.7,0.3,1,0.5l6.1-16.9C32.2,60.6,32,60.3,31.8,60.2z"/>
	<path class="st0" d="M34.2,60.8c-0.3-0.1-0.6,0.1-0.6,0.4l-3.2,18.1c0.4,0.1,0.7,0.2,1.1,0.3l3.2-18.2
		C34.7,61.2,34.5,60.9,34.2,60.8z"/>
	<path class="st0" d="M36.7,61c-0.3,0-0.5,0.2-0.5,0.5v18.9c0.4,0,0.7,0,1.1,0.1V61.6C37.2,61.3,37,61,36.7,61z"/>
	<path class="st0" d="M23.7,39.7c0.2,0,0.4-0.1,0.5-0.3c0.2-0.3,0.1-0.6-0.2-0.7l-9.1-5.2c-0.2,0.3-0.3,0.6-0.5,1l9,5.2
		C23.5,39.7,23.6,39.7,23.7,39.7z"/>
	<path class="st0" d="M46,57.7c-0.2,0.2-0.3,0.5-0.1,0.8l13.7,16.3c0.3-0.2,0.7-0.3,1-0.5L46.7,57.7C46.5,57.5,46.2,57.5,46,57.7z"
		/>
	<path class="st0" d="M51.1,46.6c0,0.3,0.2,0.5,0.5,0.5l36,0c-0.1-0.4-0.2-0.7-0.3-1.1l-35.7,0C51.4,46.1,51.1,46.3,51.1,46.6z"/>
	<path class="st0" d="M50.9,44.1c0,0.3,0.3,0.5,0.5,0.5c0,0,0.1,0,0.1,0L83.2,39c-0.3-0.3-0.6-0.6-0.9-0.9l-30.9,5.4
		C51,43.5,50.8,43.8,50.9,44.1z"/>
	<path class="st0" d="M50.2,41.7c0.1,0.2,0.3,0.4,0.5,0.4c0.1,0,0.1,0,0.2,0L76,32.9c-0.3-0.3-0.7-0.5-1.1-0.8L50.6,41
		C50.3,41.1,50.1,41.4,50.2,41.7z"/>
	<path class="st0" d="M50.9,49.1c-0.1,0.3,0.1,0.6,0.4,0.6l34.5,6.1c0.2-0.3,0.4-0.7,0.6-1l-34.9-6.1C51.2,48.6,51,48.8,50.9,49.1z"
		/>
	<path class="st0" d="M50.2,51.5c-0.1,0.3,0,0.6,0.3,0.7l28.8,10.5c0.3-0.3,0.6-0.5,0.9-0.8L50.9,51.2
		C50.7,51.1,50.4,51.3,50.2,51.5z"/>
	<path class="st0" d="M47.7,55.9c-0.2,0.2-0.2,0.6,0.1,0.8l17.9,15.1c0.3-0.2,0.7-0.4,1-0.6L48.5,55.8
		C48.3,55.6,47.9,55.7,47.7,55.9z"/>
	<path class="st0" d="M49.2,53.8c-0.2,0.3-0.1,0.6,0.2,0.7l23,13.3c0.3-0.2,0.7-0.4,1-0.7L49.9,53.6C49.7,53.5,49.3,53.6,49.2,53.8z
		"/>
	<path class="st0" d="M47.8,36.6c-0.2,0.2-0.3,0.5-0.1,0.8c0.1,0.1,0.3,0.2,0.4,0.2c0.1,0,0.2,0,0.4-0.1l16-13.4
		c-0.3-0.2-0.6-0.5-0.9-0.7L47.8,36.6z"/>
	<path class="st0" d="M22.6,42.1c0.2,0,0.4-0.1,0.5-0.4c0.1-0.3,0-0.6-0.3-0.7l-9.9-3.6c-0.2,0.3-0.3,0.7-0.5,1L22.4,42
		C22.5,42,22.6,42.1,22.6,42.1z"/>
	<path class="st0" d="M22.3,46.6c0-0.3-0.2-0.5-0.5-0.5H9c-0.1,0.4-0.3,0.7-0.4,1.1h13.1C22,47.2,22.3,46.9,22.3,46.6z"/>
	<path class="st0" d="M34.1,32.4C34.1,32.4,34.2,32.4,34.1,32.4c0.4-0.1,0.6-0.3,0.5-0.6L30.7,9.7c-0.2-0.2-0.5-0.3-0.7-0.3
		c-0.1,0-0.3,0.1-0.4,0.2l4,22.4C33.6,32.2,33.8,32.4,34.1,32.4z"/>
	<path class="st0" d="M36.7,32.2c0.3,0,0.5-0.2,0.5-0.5V19.8c-0.2,0.1-0.4,0.2-0.7,0.2c-0.1,0-0.3,0-0.4-0.1v11.8
		C36.1,32,36.4,32.2,36.7,32.2z"/>
	<path class="st0" d="M21.9,44.6c0.3,0,0.5-0.2,0.5-0.5c0.1-0.3-0.1-0.6-0.4-0.6l-11.2-2c-0.2,0.3-0.3,0.7-0.5,1L21.9,44.6
		C21.9,44.6,21.9,44.6,21.9,44.6z"/>
	<path class="st0" d="M25.2,37.5c0.2,0,0.3-0.1,0.4-0.2c0.2-0.2,0.2-0.6-0.1-0.8L17,29.4c-0.1,0.1-0.1,0.2-0.1,0.3
		c-0.1,0.2-0.2,0.5-0.4,0.7l8.4,7C25,37.5,25.1,37.5,25.2,37.5z"/>
	<path class="st0" d="M27.1,35.7c0.1,0,0.2,0,0.4-0.1c0.2-0.2,0.3-0.5,0.1-0.8l-8.1-9.7c-0.2,0.3-0.4,0.7-0.6,1l7.9,9.4
		C26.8,35.6,26.9,35.7,27.1,35.7z"/>
	<path class="st0" d="M29.5,59.1c-0.3-0.2-0.6-0.1-0.7,0.2L20,74.4c0.3,0.2,0.6,0.4,0.9,0.6l8.7-15.1C29.8,59.6,29.7,59.3,29.5,59.1
		z"/>
	<path class="st0" d="M29.2,34.2c0.1,0,0.2,0,0.3-0.1c0.3-0.2,0.4-0.5,0.2-0.7l-7.5-13.1c-0.2,0.4-0.4,0.7-0.6,1.1l7.2,12.5
		C28.8,34.1,29,34.2,29.2,34.2z"/>
	<path class="st0" d="M31.6,33.1c0.1,0,0.1,0,0.2,0c0.3-0.1,0.4-0.4,0.3-0.7l-6.4-17.7c-0.2,0.4-0.5,0.8-0.7,1.2l6.2,16.9
		C31.1,33,31.3,33.1,31.6,33.1z"/>
	<path class="st0" d="M23.1,51.5c-0.1-0.3-0.4-0.4-0.7-0.3L7.3,56.7c0.1,0.4,0.1,0.7,0.2,1.1l15.3-5.6
		C23.1,52.1,23.2,51.8,23.1,51.5z"/>
	<path class="st0" d="M24.2,53.8c-0.2-0.3-0.5-0.4-0.7-0.2L9,62c0.2,0.3,0.3,0.6,0.5,1L24,54.6C24.3,54.4,24.3,54.1,24.2,53.8z"/>
	<path class="st0" d="M25.6,55.9c-0.2-0.2-0.5-0.3-0.8-0.1L12,66.7c0.2,0.3,0.4,0.6,0.7,0.9l12.9-10.9
		C25.8,56.5,25.8,56.1,25.6,55.9z"/>
	<path class="st0" d="M39.2,32.4C39.2,32.4,39.3,32.4,39.2,32.4c0.4,0,0.6-0.2,0.6-0.4l3.3-19c-0.2-0.2-0.4-0.4-0.7-0.4
		c-0.1,0-0.2,0-0.3,0.1l-3.4,19C38.7,32.1,38.9,32.4,39.2,32.4z"/>
	<path class="st0" d="M27.4,57.7c-0.2-0.2-0.6-0.2-0.8,0.1l-11,13.1c0.3,0.3,0.5,0.5,0.8,0.7l11-13.1C27.7,58.2,27.6,57.9,27.4,57.7
		z"/>
	<path class="st0" d="M22.5,49.1c-0.1-0.3-0.3-0.5-0.6-0.4L7.6,51.2c-0.1,0.4-0.1,0.8-0.2,1.1L22,49.8
		C22.3,49.7,22.5,49.4,22.5,49.1z"/>
	<path class="st0" d="M41.6,33.1c0.1,0,0.1,0,0.2,0c0.2,0,0.4-0.1,0.5-0.4l4.5-12.2c-0.3,0.1-0.6,0.2-0.8,0.2
		c-0.1,0-0.3-0.1-0.4-0.2l-4.3,11.8C41.2,32.7,41.3,33,41.6,33.1z"/>
	<path class="st0" d="M46,35.6c0.1,0.1,0.2,0.1,0.4,0.1c0.2,0,0.3-0.1,0.4-0.2l13-15.5c-0.3-0.3-0.6-0.5-0.8-0.7l-13,15.5
		C45.7,35,45.7,35.4,46,35.6z"/>
	<path class="st0" d="M43.9,34.1c0.1,0,0.2,0.1,0.3,0.1c0.2,0,0.4-0.1,0.5-0.3l10.4-18c-0.3-0.2-0.5-0.3-0.8-0.3
		c-0.1,0-0.2,0-0.4,0.1L43.7,33.4C43.6,33.6,43.6,34,43.9,34.1z"/>
</g>
</svg>
