<svg id="Calque_2" data-name="Calque 2" xmlns="http://www.w3.org/2000/svg" viewBox="0 0 396.39 328.09"><defs><style>.cls-1{fill:#19181c;}</style></defs><title>Plan de travail 36 copie 9</title><path class="cls-1" d="M181.78,158.21a1.12,1.12,0,0,1,.91-1.3,1.11,1.11,0,0,1,1.29.91l7.2,40.79c3.21-.55,6.61-1.31,10.13-2.27L187,157a1.12,1.12,0,0,1,2.11-.77l14.37,39.5c3.29-1,6.67-2.06,10.1-3.31l-21.65-37.5a1.12,1.12,0,0,1,1.94-1.12l21.84,37.83c3.44-1.29,6.91-2.72,10.38-4.26L196.41,152a1.12,1.12,0,1,1,1.71-1.44l30.08,35.84c3.7-1.69,7.38-3.51,11-5.42l-38.87-32.62a1.12,1.12,0,0,1-.13-1.58,1.11,1.11,0,0,1,1.57-.13l39.56,33.19c4.1-2.25,8.1-4.61,11.91-7.06l-49.68-28.68a1.12,1.12,0,0,1,1.12-1.94l50.66,29.24A137.28,137.28,0,0,0,268,161.94L206,139.35a1.11,1.11,0,0,1-.67-1.43,1.12,1.12,0,0,1,1.43-.67l63.22,23a64.51,64.51,0,0,0,11.55-13l-74-13a1.12,1.12,0,1,1,.38-2.2l74.82,13.19a21.6,21.6,0,0,0,3-10.27,31.25,31.25,0,0,0-.57-6h-77a1.12,1.12,0,0,1,0-2.24h76.45c-1.59-5.67-4.82-10.5-9.13-15l-67.6,11.92-.19,0a1.12,1.12,0,0,1-.19-2.22l66.05-11.65a140.07,140.07,0,0,0-13.27-10.86l-53.59,19.5a1,1,0,0,1-.38.07,1.12,1.12,0,0,1-.38-2.18l52.2-19c-3.57-2.64-7.3-5.38-11.08-8.33l-42.44,24.5a1.15,1.15,0,0,1-.56.15,1.12,1.12,0,0,1-.56-2.09l41.66-24.05c-3.45-2.72-6.47-5.14-9.12-7.3L201.76,109a1.11,1.11,0,0,1-1.57-.14,1.11,1.11,0,0,1,.13-1.57l34-28.54c-3.36-2.77-6.06-5.06-8.26-7l-27.95,33.31a1.13,1.13,0,0,1-.86.4,1.09,1.09,0,0,1-.71-.27,1.1,1.1,0,0,1-.14-1.57l28-33.34c-5.21-4.59-7-6.48-8.15-7.19l-22.37,38.74a1.12,1.12,0,0,1-1.53.41,1.11,1.11,0,0,1-.41-1.53l21.67-37.54c-3.38,1.85-11,8.52-15,10l-9.53,26.2a1.12,1.12,0,0,1-1,.74,1.07,1.07,0,0,1-.39-.07,1.12,1.12,0,0,1-.67-1.43L196.32,73c-2.21-2.5-2.16-13.5-5.14-16L184,97.84a1.11,1.11,0,0,1-1.1.93l-.19,0a1.12,1.12,0,0,1-.91-1.3l7.16-40.6c-2.87,2.12-6.09,13-10.26,14.75V97.18a1.12,1.12,0,1,1-2.24,0V71.53C172.2,69.06,168.75,53.08,165,50l8.37,47.45a1.13,1.13,0,0,1-.91,1.3l-.2,0a1.13,1.13,0,0,1-1.1-.93L162.7,50c-1.78,1.4-4.84,5.58-8.32,10.89l13.74,37.75a1.1,1.1,0,0,1-.67,1.43,1,1,0,0,1-.38.07,1.11,1.11,0,0,1-1-.74L152.86,63.25c-1.91,3-3.9,6.23-5.84,9.46l16.18,28a1.13,1.13,0,0,1-.41,1.53,1.15,1.15,0,0,1-.56.15,1.1,1.1,0,0,1-1-.56L145.71,74.92c-1.6,2.71-3.14,5.36-4.53,7.82l17.53,20.89a1.13,1.13,0,0,1-.14,1.58,1.13,1.13,0,0,1-1.58-.14L140,84.83c-1.52,2.71-2.8,5.08-3.74,6.89l18.53,15.56a1.12,1.12,0,0,1,.14,1.57,1.1,1.1,0,0,1-.86.4,1.08,1.08,0,0,1-.72-.26L135.2,93.76q-1.66,3.26-3.32,6.42l19.68,11.36a1.12,1.12,0,0,1-.56,2.09,1.15,1.15,0,0,1-.56-.15l-19.6-11.32q-1.67,3.2-3.25,6.3l21.54,7.84a1.12,1.12,0,0,1-.38,2.17,1.32,1.32,0,0,1-.39-.06l-21.78-7.93c-1.13,2.25-2.21,4.47-3.22,6.67l24.2,4.27a1.12,1.12,0,0,1-.2,2.22l-.19,0-24.75-4.36c-1.12,2.51-2.14,5-3,7.46h27.5a1.12,1.12,0,0,1,0,2.24H118.63a65.34,65.34,0,0,0-2.21,8.5L147.17,132a1.12,1.12,0,1,1,.39,2.2L116,139.8a44.49,44.49,0,0,0-.44,6.07,25.7,25.7,0,0,0,.23,3.23l32.55-11.85a1.12,1.12,0,0,1,.77,2.11l-32.94,12a39,39,0,0,0,3.08,8.84l31.17-18a1.12,1.12,0,0,1,1.12,1.94l-31.28,18.06a60.49,60.49,0,0,0,5.11,7.95l28-23.46a1.12,1.12,0,1,1,1.44,1.71l-28,23.51a76.42,76.42,0,0,0,6.44,7L157,150.59a1.12,1.12,0,0,1,1.72,1.43l-23.84,28.41a82.86,82.86,0,0,0,7.52,6l18.87-32.67a1.11,1.11,0,0,1,1.53-.41,1.13,1.13,0,0,1,.41,1.53l-18.95,32.81a77.33,77.33,0,0,0,8.51,4.95L166,156.25a1.11,1.11,0,0,1,1.43-.67,1.1,1.1,0,0,1,.67,1.43l-13.33,36.64a69.49,69.49,0,0,0,9.4,3.54l6.94-39.37a1.12,1.12,0,0,1,2.21.39l-7,39.56a58.12,58.12,0,0,0,10.08,1.68v-41a1.12,1.12,0,0,1,2.24,0v41.09c.61,0,1.23.05,1.85.05A60.2,60.2,0,0,0,189,199Z"/><path class="cls-1" d="M89.43,231.07a11,11,0,0,1,5.32,1.33v2.72a9.13,9.13,0,0,0-5.35-1.75,7.43,7.43,0,0,0,.21,14.86,8.54,8.54,0,0,0,5.43-1.9v2.74a10.7,10.7,0,0,1-5.56,1.46,9.73,9.73,0,1,1,0-19.46Z"/><path class="cls-1" d="M111.36,231.07a9.73,9.73,0,1,1-9.6,9.73A9.5,9.5,0,0,1,111.36,231.07Zm0,17.16a7.44,7.44,0,1,0-7.12-7.43A7.13,7.13,0,0,0,111.36,248.23Z"/><path class="cls-1" d="M133.47,239.21c-.86-1.22-1.7-2.48-2.53-3.73l-.05,0c0,1.12.05,2.55.05,4.09v10.64h-2.4V231.36h2.4l6.7,9.6,6.7-9.6h2.37v18.88h-2.47V239.6c0-1.54,0-3,0-4.09l0,0c-.84,1.25-1.67,2.51-2.53,3.73l-4.12,5.89Z"/><path class="cls-1" d="M160.3,239.21c-.86-1.22-1.7-2.48-2.53-3.73l-.06,0c0,1.12.06,2.55.06,4.09v10.64h-2.4V231.36h2.4l6.7,9.6,6.7-9.6h2.37v18.88h-2.47V239.6c0-1.54,0-3,.05-4.09l-.05,0c-.84,1.25-1.67,2.51-2.53,3.73l-4.12,5.89Z"/><path class="cls-1" d="M182,241.35v-10h2.48v9.73c0,2.32.15,3.78.73,4.87s2,2.27,4.48,2.27c2.3,0,3.7-.88,4.43-2.27.6-1.12.71-2.63.71-4.77v-9.83h2.4v9.7c0,2.74-.16,4.85-1.25,6.52-1.2,1.83-3.47,2.95-6.39,2.95s-5.17-1.15-6.34-2.95S182,243.7,182,241.35Z"/><path class="cls-1" d="M205.66,250.24V231.36H208l7.9,10.48c1.1,1.44,2.19,2.93,3.26,4.41l.05,0c0-1.65-.05-3.55-.05-5.38v-9.49h2.4v18.88h-2.35l-7.9-10.48c-1.09-1.44-2.19-2.92-3.26-4.41l-.05,0c0,1.64.05,3.54.05,5.37v9.49Z"/><path class="cls-1" d="M236,231.36h2.37l7.8,18.88h-2.66L241.41,245h-8.5l-2.14,5.27h-2.53Zm-2.24,11.45h6.78L239,238.9c-.6-1.51-1.23-3.13-1.8-4.67h-.05c-.57,1.54-1.2,3.13-1.85,4.75Z"/><path class="cls-1" d="M252.28,241.35v-10h2.48v9.73c0,2.32.15,3.78.73,4.87s2,2.27,4.48,2.27c2.3,0,3.71-.88,4.43-2.27.6-1.12.71-2.63.71-4.77v-9.83h2.4v9.7c0,2.74-.16,4.85-1.25,6.52-1.2,1.83-3.47,2.95-6.39,2.95s-5.17-1.15-6.34-2.95S252.28,243.7,252.28,241.35Z"/><path class="cls-1" d="M280.7,233.6h-6.34v-2.24h15.15v2.24h-6.33v16.64H280.7Z"/><path class="cls-1" d="M296.58,231.36h10.9v2.24h-8.43v5.74h7.38v2.17h-7.38V248h8.66v2.24H296.58Zm5.68-1.85h-1.77l2-4.28h2.63Z"/><path class="cls-1" d="M44.05,262.65h5.19a12.72,12.72,0,0,1,6.68,1.54A8.91,8.91,0,0,1,60.14,272a9.15,9.15,0,0,1-3.75,7.61c-2,1.41-4.52,1.91-7.78,1.91H44.05Zm5,16.64a10.05,10.05,0,0,0,5.6-1.26,7.28,7.28,0,0,0,0-11.83A10,10,0,0,0,49,264.89H46.53v14.4Z"/><path class="cls-1" d="M67.65,262.65h10.9v2.24H70.12v5.74H77.5v2.16H70.12v6.5h8.66v2.24H67.65Z"/><path class="cls-1" d="M97.19,262.65h2.47v16.64h8.92v2.24H97.19Z"/><path class="cls-1" d="M121.67,262.65H124l7.8,18.88h-2.66l-2.11-5.27h-8.5l-2.14,5.27H113.9Zm-2.24,11.45h6.78l-1.54-3.92c-.6-1.51-1.23-3.12-1.8-4.66h-.05c-.58,1.54-1.2,3.13-1.85,4.74Z"/><path class="cls-1" d="M149.25,262.65h5.11a10.64,10.64,0,0,1,5.27.94,4.79,4.79,0,0,1,2.61,4.4,5,5,0,0,1-2.43,4.44,5.73,5.73,0,0,1-2.16.78l6,8.32h-3l-5.76-8.09h-3.21v8.09h-2.48Zm5.69,8.76a6,6,0,0,0,3.7-.86,2.78,2.78,0,0,0,1.12-2.35,2.9,2.9,0,0,0-1.54-2.68,8.3,8.3,0,0,0-4-.63h-2.45v6.52Z"/><path class="cls-1" d="M179.06,262.36a9.73,9.73,0,1,1-9.6,9.73A9.49,9.49,0,0,1,179.06,262.36Zm0,17.16a7.44,7.44,0,1,0-7.12-7.43A7.13,7.13,0,0,0,179.06,279.52Z"/><path class="cls-1" d="M205,262.36a11,11,0,0,1,5.32,1.33v2.71a9.14,9.14,0,0,0-5.34-1.74,7.43,7.43,0,1,0,.21,14.86,8.53,8.53,0,0,0,5.42-1.9v2.74a10.66,10.66,0,0,1-5.55,1.46,9.73,9.73,0,1,1-.06-19.46Z"/><path class="cls-1" d="M218.42,262.65h2.48v8h10.28v-8h2.47v18.88h-2.47v-8.68H220.9v8.68h-2.48Z"/><path class="cls-1" d="M242.31,262.65h10.9v2.24h-8.43v5.74h7.38v2.16h-7.38v6.5h8.66v2.24H242.31Z"/><path class="cls-1" d="M271.85,262.65H277a12.66,12.66,0,0,1,6.67,1.54,8.92,8.92,0,0,1,4.23,7.82,9.13,9.13,0,0,1-3.76,7.61c-2,1.41-4.51,1.91-7.77,1.91h-4.56Zm4.95,16.64a10.06,10.06,0,0,0,5.61-1.26,7.27,7.27,0,0,0,0-11.83,10,10,0,0,0-5.68-1.31h-2.43v14.4Z"/><path class="cls-1" d="M295.94,262.18h2.29l-2.13,7h-1.6Z"/><path class="cls-1" d="M313.51,262.36a9.73,9.73,0,1,1-9.59,9.73A9.49,9.49,0,0,1,313.51,262.36Zm0,17.16a7.44,7.44,0,1,0-7.12-7.43A7.13,7.13,0,0,0,313.51,279.52Z"/><path class="cls-1" d="M330.69,262.65h5.11a10.64,10.64,0,0,1,5.27.94,4.79,4.79,0,0,1,2.61,4.4,5,5,0,0,1-2.43,4.44,5.73,5.73,0,0,1-2.16.78l6.05,8.32h-3l-5.76-8.09h-3.21v8.09h-2.48Zm5.69,8.76a6,6,0,0,0,3.7-.86,2.78,2.78,0,0,0,1.12-2.35,2.9,2.9,0,0,0-1.54-2.68,8.3,8.3,0,0,0-4-.63h-2.45v6.52Z"/></svg>