<svg id="Calque_2" data-name="Calque 2" xmlns="http://www.w3.org/2000/svg" viewBox="0 0 396.39 328.09"><defs><style>.cls-1{fill:#231f20;}</style></defs><title>Plan de travail 36 copie 11</title><path class="cls-1" d="M100.15,157.91v13.86l18.5-10.68a40,40,0,0,1-3.14-8.77Z"/><path class="cls-1" d="M100.15,85.61V99.47l26.62,9.68c1-2.07,2.14-4.17,3.25-6.3Z"/><path class="cls-1" d="M100.15,38.8V62.63L135.5,92.29c.94-1.81,2.22-4.19,3.74-6.9Z"/><path class="cls-1" d="M100.15,101.93v12l22.36,4c1-2.2,2.09-4.43,3.21-6.68Z"/><path class="cls-1" d="M100.15,129.86v11.21l15.43-2.72a64.54,64.54,0,0,1,2.17-8.49Z"/><path class="cls-1" d="M100.15,116.31v11.24h18.39c.88-2.47,1.89-5,3-7.47Z"/><path class="cls-1" d="M118.89,30.19H100.15v5l40.31,48c1.39-2.47,2.93-5.13,4.53-7.83Z"/><path class="cls-1" d="M188.55,57.14l4.75-26.95H178.25V72C182.44,69.82,185.66,58.75,188.55,57.14Z"/><path class="cls-1" d="M140,30.19H121.56l24.79,42.94c1.94-3.24,3.93-6.48,5.85-9.47Z"/><path class="cls-1" d="M175.94,72.1V30.19h-15l3.61,20.46C168.26,54.21,171.7,70,175.94,72.1Z"/><path class="cls-1" d="M195.89,73.7l15.84-43.51H195.64l-4.85,27.5C193.61,60.69,193.53,71.71,195.89,73.7Z"/><path class="cls-1" d="M232.64,30.19H214.19L198.41,73.54c4.24-1.88,12.07-8.77,15.05-10.13Z"/><path class="cls-1" d="M290.64,31.92V30.19H261.27L225.77,72.5c2.21,1.9,4.91,4.2,8.25,6.94Z"/><path class="cls-1" d="M258.25,30.19H235.31L215.93,63.77c1.19.86,3.13,2.85,8.1,7.21Z"/><path class="cls-1" d="M125.31,220.68h17.07l9.91-27.21a77.58,77.58,0,0,1-8.46-4.86Z"/><path class="cls-1" d="M290.64,192.9V171.23l-23.33-8.49a139.51,139.51,0,0,1-12.63,9.39Z"/><path class="cls-1" d="M100.15,174.44v17.29L124.84,171a60.8,60.8,0,0,1-5.13-7.88Z"/><path class="cls-1" d="M288.55,220.68h2.09V195.56l-38.13-22c-3.78,2.43-7.74,4.77-11.81,7Z"/><path class="cls-1" d="M255.81,220.68H285l-46.44-39c-3.58,1.9-7.23,3.7-10.89,5.37Z"/><path class="cls-1" d="M290.64,107.51V88.61L260.17,99.7a135.86,135.86,0,0,1,13.19,10.86Z"/><path class="cls-1" d="M290.64,61.82V34.94l-54.81,46c2.65,2.16,5.67,4.58,9.09,7.28Z"/><path class="cls-1" d="M290.64,86.15V64.49L246.89,89.75c3.78,2.93,7.51,5.66,11.06,8.3Z"/><path class="cls-1" d="M290.64,127.55V109.86l-15.31,2.7c4.24,4.5,7.39,9.32,8.92,15Z"/><path class="cls-1" d="M162.11,50.36l-3.55-20.17H142.47l11.3,31C157.28,55.87,160.37,51.68,162.11,50.36Z"/><path class="cls-1" d="M144.84,220.68H159.7l4-22.75a70.12,70.12,0,0,1-9.33-3.47Z"/><path class="cls-1" d="M101.41,220.68h21.24l19.26-33.37a83.07,83.07,0,0,1-7.49-6Z"/><path class="cls-1" d="M194.5,220.68h14.86L200.74,197c-3.48.95-6.84,1.71-10,2.26Z"/><path class="cls-1" d="M211.82,220.68h17.07L213,193.1c-3.39,1.23-6.73,2.33-10,3.27Z"/><path class="cls-1" d="M231.56,220.68h21.23l-27.36-32.61c-3.43,1.52-6.87,2.93-10.27,4.22Z"/><path class="cls-1" d="M162.05,220.68h13.89V200.14a58,58,0,0,1-10-1.62Z"/><path class="cls-1" d="M100.15,65.65V82.94l30.94,17.86c1.1-2.11,2.21-4.24,3.32-6.41Z"/><path class="cls-1" d="M269.31,161l21.33,7.76v-18.9l-9.78-1.73A66,66,0,0,1,269.31,161Z"/><path class="cls-1" d="M178.25,200.25v20.43h13.9l-3.71-21.06a59.3,59.3,0,0,1-8.57.68C179.33,200.3,178.79,200.27,178.25,200.25Z"/><path class="cls-1" d="M282.15,146l8.49,1.49V129.86h-5.85a31.4,31.4,0,0,1,.5,5.67A21.77,21.77,0,0,1,282.15,146Z"/><path class="cls-1" d="M126.27,172.83l-26.12,21.92v23.83l32.57-38.81A75.89,75.89,0,0,1,126.27,172.83Z"/><path class="cls-1" d="M115.21,140.76l-15.06,2.66v12L115.09,150a25.64,25.64,0,0,1-.27-3.55A43.94,43.94,0,0,1,115.21,140.76Z"/><path class="cls-1" d="M192.34,155.07a1.16,1.16,0,0,0-.42,1.58l21,36.45c.73-.26,1.47-.53,2.2-.81L193.92,155.5A1.15,1.15,0,0,0,192.34,155.07Z"/><path class="cls-1" d="M203.5,113.46a1.15,1.15,0,0,0,1,.58,1.18,1.18,0,0,0,.57-.15l41.82-24.14-1.69-1.32-.28-.22-41,23.68A1.14,1.14,0,0,0,203.5,113.46Z"/><path class="cls-1" d="M182.39,158.69a1.15,1.15,0,0,0-.93,1.34l7,39.59c.75-.1,1.51-.23,2.28-.36l-7-39.63A1.16,1.16,0,0,0,182.39,158.69Z"/><path class="cls-1" d="M187.53,157.32a1.15,1.15,0,0,0-.69,1.48l13.9,38.2,2.23-.63L189,158A1.15,1.15,0,0,0,187.53,157.32Z"/><path class="cls-1" d="M166.68,157.32a1.16,1.16,0,0,0-1.49.69l-12.9,35.46c.69.35,1.39.67,2.1,1l13-35.66A1.17,1.17,0,0,0,166.68,157.32Z"/><path class="cls-1" d="M171.81,158.7a1.14,1.14,0,0,0-1.34.93l-6.75,38.3c.74.21,1.49.41,2.24.59L172.75,160A1.15,1.15,0,0,0,171.81,158.7Z"/><path class="cls-1" d="M177.1,159.16a1.16,1.16,0,0,0-1.16,1.15v39.83c.77.06,1.54.09,2.31.11V160.31A1.15,1.15,0,0,0,177.1,159.16Z"/><path class="cls-1" d="M149.7,114a1.16,1.16,0,0,0,.58-2.16L131.09,100.8l-1.07,2,19.1,11A1.19,1.19,0,0,0,149.7,114Z"/><path class="cls-1" d="M196.69,152a1.14,1.14,0,0,0-.14,1.62l28.88,34.42,2.19-1-29.3-34.91A1.16,1.16,0,0,0,196.69,152Z"/><path class="cls-1" d="M207.58,128.7a1.16,1.16,0,0,0,1.16,1.16h76.05c-.15-.79-.33-1.55-.54-2.31H208.74A1.16,1.16,0,0,0,207.58,128.7Z"/><path class="cls-1" d="M207.12,123.41a1.15,1.15,0,0,0,1.13,1l.2,0,66.88-11.79c-.63-.67-1.29-1.34-2-2l-65.31,11.51A1.15,1.15,0,0,0,207.12,123.41Z"/><path class="cls-1" d="M205.74,118.28a1.16,1.16,0,0,0,1.49.69L260.17,99.7,258,98.05,206.43,116.8A1.17,1.17,0,0,0,205.74,118.28Z"/><path class="cls-1" d="M207.12,134a1.15,1.15,0,0,0,.93,1.34l72.81,12.83c.46-.7.9-1.41,1.29-2.11l-73.7-13A1.15,1.15,0,0,0,207.12,134Z"/><path class="cls-1" d="M205.74,139.1a1.17,1.17,0,0,0,.69,1.48l60.88,22.16c.68-.58,1.35-1.15,2-1.73l-62.08-22.6A1.16,1.16,0,0,0,205.74,139.1Z"/><path class="cls-1" d="M200.45,148.27a1.16,1.16,0,0,0,.14,1.63l37.92,31.81,2.19-1.17-38.62-32.41A1.16,1.16,0,0,0,200.45,148.27Z"/><path class="cls-1" d="M203.5,143.92a1.16,1.16,0,0,0,.42,1.58l48.59,28.05,2.17-1.42-49.61-28.64A1.15,1.15,0,0,0,203.5,143.92Z"/><path class="cls-1" d="M200.59,107.48a1.16,1.16,0,0,0,.74,2,1.12,1.12,0,0,0,.75-.27l33.75-28.32L234,79.44Z"/><path class="cls-1" d="M147.37,119a1.16,1.16,0,0,0,1.09-.76,1.15,1.15,0,0,0-.69-1.48l-21-7.65c-.36.7-.7,1.39-1,2.08L147,119A1.07,1.07,0,0,0,147.37,119Z"/><path class="cls-1" d="M146.62,128.7a1.16,1.16,0,0,0-1.16-1.15H118.54c-.27.77-.54,1.54-.79,2.31h27.71A1.16,1.16,0,0,0,146.62,128.7Z"/><path class="cls-1" d="M171.61,98.7a.71.71,0,0,0,.2,0,1.15,1.15,0,0,0,.94-1.33l-8.24-46.7a2.2,2.2,0,0,0-1.46-.73,1.83,1.83,0,0,0-.94.44l8.36,47.39A1.16,1.16,0,0,0,171.61,98.7Z"/><path class="cls-1" d="M177.1,98.22a1.14,1.14,0,0,0,1.15-1.15V72a3,3,0,0,1-1.39.36,2.09,2.09,0,0,1-.92-.23v25A1.15,1.15,0,0,0,177.1,98.22Z"/><path class="cls-1" d="M146,124.37a1.16,1.16,0,0,0,.19-2.3l-23.63-4.16c-.33.72-.65,1.45-1,2.17l24.2,4.27Z"/><path class="cls-1" d="M152.86,109.52a1.17,1.17,0,0,0,.89-.41,1.16,1.16,0,0,0-.14-1.63L135.5,92.29l-.32.61c-.25.5-.51,1-.77,1.49l17.71,14.86A1.17,1.17,0,0,0,152.86,109.52Z"/><path class="cls-1" d="M156.76,105.62a1.15,1.15,0,0,0,.89-1.9L140.46,83.24c-.42.73-.83,1.45-1.22,2.15l16.64,19.82A1.15,1.15,0,0,0,156.76,105.62Z"/><path class="cls-1" d="M161.86,155.07a1.17,1.17,0,0,0-1.58.43l-18.37,31.81c.63.44,1.28.87,1.92,1.3l18.45-32A1.16,1.16,0,0,0,161.86,155.07Z"/><path class="cls-1" d="M161.28,102.46a1.19,1.19,0,0,0,.58-.15,1.16,1.16,0,0,0,.42-1.58l-15.93-27.6c-.46.76-.91,1.52-1.36,2.28l15.29,26.47A1.15,1.15,0,0,0,161.28,102.46Z"/><path class="cls-1" d="M166.28,100.13a1.16,1.16,0,0,0,1.09-1.55l-13.6-37.36c-.52.79-1,1.6-1.57,2.44l13,35.71A1.17,1.17,0,0,0,166.28,100.13Z"/><path class="cls-1" d="M148.46,139.1a1.16,1.16,0,0,0-1.48-.69L115.09,150c.11.76.25,1.53.42,2.3l32.26-11.74A1.15,1.15,0,0,0,148.46,139.1Z"/><path class="cls-1" d="M150.7,143.92a1.16,1.16,0,0,0-1.58-.42l-30.47,17.59c.33.68.69,1.37,1.06,2l30.57-17.64A1.16,1.16,0,0,0,150.7,143.92Z"/><path class="cls-1" d="M153.75,148.27a1.16,1.16,0,0,0-1.63-.14L124.84,171c.46.61.94,1.21,1.43,1.81l27.34-22.93A1.16,1.16,0,0,0,153.75,148.27Z"/><path class="cls-1" d="M182.39,98.69l.2,0a1.17,1.17,0,0,0,1.14-1l7.06-40.06a2.09,2.09,0,0,0-1.54-.75,1.34,1.34,0,0,0-.7.2l-7.09,40.21A1.14,1.14,0,0,0,182.39,98.69Z"/><path class="cls-1" d="M157.51,152a1.16,1.16,0,0,0-1.63.14l-23.16,27.6c.56.53,1.12,1,1.7,1.57l23.23-27.68A1.17,1.17,0,0,0,157.51,152Z"/><path class="cls-1" d="M147.08,134a1.16,1.16,0,0,0-1.34-.94l-30.16,5.32c-.15.81-.27,1.61-.37,2.41l30.93-5.45A1.16,1.16,0,0,0,147.08,134Z"/><path class="cls-1" d="M187.53,100.06a1.07,1.07,0,0,0,.39.07,1.16,1.16,0,0,0,1.09-.76l9.4-25.83a4.64,4.64,0,0,1-1.73.48,1.22,1.22,0,0,1-.79-.32l-9,24.88A1.15,1.15,0,0,0,187.53,100.06Z"/><path class="cls-1" d="M196.69,105.36a1.15,1.15,0,0,0,.74.26,1.14,1.14,0,0,0,.89-.41L225.77,72.5,224,71l-27.48,32.75A1.16,1.16,0,0,0,196.69,105.36Z"/><path class="cls-1" d="M192.34,102.31a1.19,1.19,0,0,0,.58.15,1.14,1.14,0,0,0,1-.57l22-38.12a2.6,2.6,0,0,0-1.66-.6,2.25,2.25,0,0,0-.81.24l-21.54,37.32A1.16,1.16,0,0,0,192.34,102.31Z"/></svg>